<?xml version="1.0" standalone="no"?>
<!DOCTYPE svg PUBLIC "-//W3C//DTD SVG 20010904//EN"
 "http://www.w3.org/TR/2001/REC-SVG-20010904/DTD/svg10.dtd">
<svg version="1.0" xmlns="http://www.w3.org/2000/svg"
 width="585.000000pt" height="519.000000pt" viewBox="0 0 585.000000 519.000000"
 preserveAspectRatio="xMidYMid meet">

<g transform="translate(0.000000,519.000000) scale(0.100000,-0.100000)"
fill="#000000" stroke="none">
<path d="M0 2595 l0 -2595 2925 0 2925 0 -3 1293 c-2 1031 -5 1318 -17 1419
-12 109 -12 140 0 225 12 79 15 312 17 1176 l3 1077 -2925 0 -2925 0 0 -2595z
m2251 1826 c6 10 9 10 9 2 0 -10 147 -13 670 -13 523 0 670 3 670 13 0 8 4 7
10 -3 9 -13 10 -13 10 0 0 11 2 12 8 2 6 -8 35 -12 98 -10 92 1 131 -15 47
-20 -27 -2 -55 -5 -63 -8 -8 -4 -49 -8 -90 -10 -41 -3 -82 -7 -90 -10 -8 -3
-53 -10 -100 -15 -47 -4 -110 -11 -140 -14 -30 -4 -65 -8 -77 -9 -12 -1 -25
-4 -28 -7 -3 -3 -25 -4 -49 -2 -24 2 -47 0 -50 -6 -4 -6 -14 -7 -22 -4 -14 5
-14 3 -3 -15 7 -11 16 -19 20 -16 4 2 10 -3 13 -12 3 -8 10 -13 15 -9 5 3 12
1 15 -4 4 -5 1 -13 -4 -16 -13 -8 16 -45 34 -45 6 -1 20 -15 32 -33 12 -20 27
-31 38 -29 11 2 20 -4 23 -17 3 -12 8 -19 12 -17 3 2 15 -8 26 -23 19 -26 19
-26 0 -11 -20 14 -20 14 -1 -8 20 -23 43 -31 30 -10 -4 7 -3 8 4 4 7 -4 12
-15 12 -25 0 -19 49 -71 67 -71 6 0 17 -8 24 -17 13 -17 12 -17 -6 -3 -11 8
-4 -3 14 -23 19 -20 41 -37 48 -37 7 0 13 -6 13 -14 0 -15 65 -76 81 -76 6 0
8 -4 5 -9 -7 -11 22 -23 36 -14 6 3 8 1 5 -5 -11 -16 2 -39 25 -45 11 -3 17
-10 14 -15 -7 -12 22 -24 36 -15 6 3 8 1 5 -5 -11 -16 2 -39 25 -45 11 -3 17
-10 14 -16 -4 -5 3 -12 13 -16 11 -3 23 -14 26 -24 3 -11 15 -21 26 -24 11 -3
18 -10 17 -17 -2 -6 15 -23 37 -38 22 -16 40 -32 40 -37 -1 -13 48 -62 57 -58
4 2 14 -12 22 -30 8 -19 19 -37 24 -41 12 -7 10 13 -3 34 -8 13 -7 13 8 1 9
-7 15 -16 13 -20 -2 -3 2 -17 10 -31 7 -14 13 -21 14 -16 0 6 7 1 16 -10 8
-10 13 -14 10 -8 -3 6 1 11 9 11 12 0 12 -3 3 -15 -10 -11 -8 -17 7 -28 10 -8
23 -14 28 -14 4 0 6 -4 3 -9 -7 -11 13 -9 33 3 10 7 12 5 6 -5 -4 -8 5 -2 22
14 16 15 34 27 40 27 7 0 18 9 26 20 8 11 16 17 20 14 3 -3 12 3 19 15 7 12
18 21 24 21 5 0 20 9 32 20 12 11 25 21 29 23 5 1 7 5 6 8 -1 3 4 6 10 6 15 0
119 72 130 90 4 7 13 13 20 13 13 1 57 35 57 45 0 3 -5 3 -12 -1 -7 -5 -8 -3
-3 5 5 9 11 9 17 3 13 -13 43 12 33 27 -3 5 -1 12 4 15 5 4 13 1 17 -5 5 -8
13 -4 26 12 11 13 16 18 12 10 -4 -7 8 -3 27 10 59 42 63 48 51 75 -7 13 -16
25 -22 25 -5 1 -14 2 -19 3 -17 2 -22 14 -10 22 8 5 10 3 4 -6 -6 -9 -4 -11 5
-5 10 6 6 15 -17 34 -16 14 -33 34 -36 44 -4 10 -12 15 -17 12 -6 -4 -9 -2 -8
3 5 17 -43 74 -57 68 -9 -3 -12 1 -10 15 2 11 -4 23 -13 28 -10 5 -24 21 -31
35 -8 14 -18 23 -23 20 -4 -3 -5 -10 -2 -16 4 -6 2 -8 -4 -5 -5 4 -8 16 -5 27
4 14 0 20 -11 20 -10 0 -15 4 -12 9 8 12 -53 86 -69 85 -7 -1 -12 6 -11 15 0
9 -5 15 -12 13 -8 -1 -11 1 -8 6 8 14 -52 74 -66 66 -8 -5 -8 -1 2 11 14 17
13 18 -4 12 -12 -5 -17 -3 -14 5 5 15 -27 50 -37 40 -3 -4 -3 1 0 10 9 24 -16
34 -31 13 -12 -16 -13 -14 -9 16 4 29 0 38 -28 61 l-32 28 33 -2 c18 -1 39 -9
45 -18 11 -13 10 -13 -8 0 -20 14 -20 14 -1 -7 10 -12 23 -21 29 -20 6 1 11
-4 12 -11 0 -14 23 -32 43 -32 7 0 10 5 6 11 -4 8 -1 8 12 1 11 -5 26 -7 34
-5 12 4 13 3 1 -5 -8 -6 -11 -17 -8 -27 4 -9 3 -14 -3 -10 -6 3 -10 13 -10 21
0 16 -16 19 -24 5 -7 -10 65 -71 83 -71 6 0 10 -5 9 -11 -2 -6 6 -16 16 -22
11 -7 28 -20 38 -29 10 -10 23 -18 29 -18 5 0 7 -4 4 -10 -6 -9 8 -14 28 -11
4 0 6 -2 5 -7 -6 -16 50 -65 67 -59 10 4 14 3 10 -4 -9 -13 14 -41 28 -32 5 3
7 2 4 -4 -3 -5 4 -16 16 -24 12 -8 34 -26 49 -41 15 -14 28 -24 28 -22 0 3 18
-14 40 -36 23 -24 45 -38 52 -34 6 4 8 3 4 -4 -7 -12 42 -54 55 -46 5 3 8 1 7
-4 -2 -6 1 -10 5 -11 11 -1 37 -28 37 -39 0 -5 10 -16 23 -25 12 -8 33 -26 47
-38 13 -13 27 -24 30 -24 4 0 14 -8 24 -17 21 -22 27 -23 20 -4 -3 8 -1 17 4
20 5 3 10 0 9 -7 -1 -43 4 -59 18 -54 8 4 17 1 21 -5 5 -7 2 -8 -7 -3 -8 4 -1
-6 15 -23 17 -18 36 -32 43 -32 8 0 11 -4 8 -10 -3 -5 0 -10 8 -10 8 0 18 -7
21 -16 3 -9 11 -12 18 -8 7 4 10 4 6 -1 -9 -10 40 -57 52 -50 4 3 14 -3 21
-13 13 -16 13 -16 -6 -2 -19 14 -19 14 -6 -3 8 -10 20 -16 28 -13 8 3 12 2 9
-3 -7 -11 29 -43 38 -34 4 5 6 2 4 -5 -2 -8 8 -21 22 -30 24 -16 24 -16 11 1
-13 16 -11 20 6 15 4 -2 9 -12 11 -22 3 -21 32 -59 40 -52 2 3 18 -10 35 -27
17 -18 35 -33 39 -33 4 -1 12 -2 18 -3 5 0 9 -4 7 -9 -1 -4 8 -17 19 -28 17
-17 25 -19 34 -10 10 8 12 7 7 -6 -7 -19 21 -48 49 -49 12 0 14 -3 6 -6 -10
-4 -7 -12 10 -31 13 -14 18 -22 11 -19 -13 8 -66 -50 -57 -64 3 -5 -3 -9 -12
-9 -22 0 -157 -137 -149 -150 3 -6 -2 -10 -11 -10 -22 0 -157 -137 -149 -150
3 -6 -2 -10 -11 -10 -22 0 -157 -137 -149 -150 3 -6 -2 -10 -11 -10 -22 0
-157 -137 -149 -150 3 -6 -2 -10 -11 -10 -22 0 -157 -137 -149 -150 3 -6 -2
-10 -13 -10 -23 0 -156 -135 -147 -150 3 -5 -3 -10 -14 -10 -22 0 -74 -57 -65
-71 3 -5 -4 -9 -15 -9 -22 0 -74 -57 -65 -71 3 -5 -3 -9 -12 -9 -22 0 -157
-137 -149 -150 3 -6 -2 -10 -12 -10 -22 0 -157 -136 -148 -150 3 -5 -3 -10
-14 -10 -23 0 -41 -27 -34 -50 4 -13 3 -13 -6 0 -9 13 -15 8 -13 -11 1 -4 -6
-6 -16 -5 -10 0 -16 -6 -16 -16 1 -11 -4 -14 -14 -11 -8 4 -13 2 -10 -3 8 -12
-17 -35 -28 -26 -4 4 -5 0 -1 -9 4 -11 0 -16 -11 -15 -10 0 -16 -6 -16 -16 1
-11 -4 -14 -14 -11 -10 4 -13 2 -8 -5 3 -6 -3 -13 -15 -17 -12 -4 -18 -12 -15
-20 3 -10 0 -12 -11 -8 -11 4 -14 2 -9 -5 4 -7 2 -12 -4 -12 -6 0 -8 -4 -5
-10 4 -6 -1 -7 -11 -3 -10 3 -15 2 -12 -3 6 -9 -16 -35 -29 -33 -4 0 -9 -5
-12 -12 -2 -7 1 -9 8 -5 19 12 12 0 -11 -20 -19 -15 -20 -16 -9 -1 7 9 9 17 3
17 -13 0 -33 -25 -26 -33 3 -3 -4 -8 -16 -12 -11 -4 -27 -21 -35 -38 -9 -18
-13 -24 -10 -14 3 10 1 15 -5 12 -6 -3 -10 -11 -10 -16 0 -12 -17 -29 -45 -45
-10 -6 -23 -19 -29 -29 -16 -27 -33 -45 -39 -39 -2 3 -7 -2 -11 -11 -3 -9 -2
-13 4 -10 6 3 7 -1 4 -9 -6 -16 -17 -20 -43 -17 -7 2 -11 -1 -8 -6 6 -9 -18
-34 -26 -27 -8 9 -27 -32 -19 -41 4 -5 2 -5 -4 -2 -6 4 -31 -12 -55 -35 -24
-23 -36 -38 -26 -35 11 4 16 3 12 -4 -4 -6 -13 -8 -21 -5 -8 3 -23 -7 -36 -24
-11 -16 -25 -27 -30 -24 -5 4 2 18 16 33 15 15 24 30 21 34 -3 4 -2 5 2 2 9
-7 35 33 28 45 -3 6 1 7 9 4 9 -3 16 -2 16 3 0 6 14 25 30 44 17 19 38 43 48
54 23 26 43 65 34 66 -4 1 -11 0 -17 -1 -5 -1 -6 2 -2 6 12 12 38 14 31 2 -4
-6 -1 -9 7 -6 8 3 14 12 14 21 0 8 4 19 9 24 5 5 6 2 2 -7 -4 -8 4 -1 18 15
14 17 26 35 26 40 0 6 10 21 21 35 11 14 17 18 13 10 -4 -8 5 -4 19 9 15 14
27 28 27 32 0 5 10 19 23 32 12 13 36 41 54 63 18 21 44 53 58 69 14 17 25 34
25 39 0 4 11 17 25 28 14 11 22 24 19 29 -3 6 4 13 16 16 14 4 19 11 15 22 -3
8 -3 12 1 9 9 -9 47 28 40 40 -3 5 4 18 17 28 l22 19 -20 -25 -20 -25 27 24
c20 17 25 28 18 36 -7 9 -5 17 7 26 17 13 17 13 3 -5 -14 -18 -14 -19 7 -8 12
7 25 17 29 24 5 7 2 8 -7 3 -8 -4 4 9 26 30 22 20 33 33 25 29 -11 -6 -10 -4
2 7 9 9 14 20 10 24 -4 5 -2 5 5 2 6 -4 23 7 38 25 14 18 40 51 58 72 18 22
31 46 30 53 0 8 2 12 5 9 7 -7 62 43 62 56 0 5 9 18 20 30 10 12 16 26 13 32
-3 6 -3 8 2 4 11 -11 36 12 28 25 -3 6 -1 7 5 3 14 -8 36 30 26 46 -5 8 -2 9
9 5 11 -4 20 1 27 13 8 15 8 20 -2 20 -7 0 2 8 20 16 17 9 32 21 32 27 0 5 10
20 23 32 12 12 33 36 47 54 14 18 35 43 48 56 13 13 24 32 25 43 0 12 4 19 8
16 11 -6 40 26 33 37 -3 5 -2 8 3 7 9 -3 53 38 53 50 0 4 9 13 20 20 11 7 20
17 20 23 0 5 -5 7 -12 3 -7 -4 -8 -3 -4 5 4 6 10 10 14 7 4 -2 18 8 32 22 19
18 21 23 7 18 -11 -3 -16 -2 -12 4 3 6 13 10 21 10 8 0 14 5 14 11 0 5 -4 8
-8 5 -5 -3 -9 1 -9 9 0 11 3 12 14 3 11 -9 18 -7 31 7 13 13 13 16 2 11 -9 -5
-9 -2 2 7 10 8 14 18 10 22 -4 5 -2 5 4 2 14 -8 85 78 79 95 -3 7 5 24 16 38
l21 25 -17 -28 c-25 -43 -12 -43 20 -1 16 21 23 34 15 29 -9 -5 -11 -4 -6 3 4
7 12 12 18 12 10 0 68 60 68 71 0 3 11 18 25 33 14 15 22 33 19 39 -4 7 -4 9
1 5 9 -9 35 9 35 23 0 5 -234 8 -547 7 l-546 -3 -23 -45 c-12 -24 -20 -48 -18
-52 3 -4 0 -8 -6 -8 -6 0 -8 -4 -5 -10 3 -5 1 -10 -4 -10 -6 0 -10 -3 -9 -7 1
-5 -6 -21 -16 -36 -17 -24 -17 -30 -5 -39 12 -8 12 -9 -1 -5 -19 5 -51 -57
-43 -81 3 -9 2 -14 -2 -9 -11 9 -67 -103 -60 -121 3 -7 1 -11 -4 -8 -8 5 -28
-27 -33 -54 -2 -8 -9 -21 -16 -28 -7 -8 -10 -18 -7 -23 4 -5 2 -9 -3 -9 -12 0
-107 -211 -104 -231 2 -10 -2 -21 -9 -25 -8 -5 -9 -3 -4 6 5 9 4 11 -4 6 -7
-4 -10 -13 -8 -19 2 -6 -4 -19 -12 -29 -9 -10 -16 -22 -16 -26 0 -4 -4 -13 -8
-19 -11 -17 5 -17 23 0 12 10 12 9 1 -5 -7 -10 -20 -18 -28 -18 -8 0 -11 -5
-8 -10 3 -6 1 -10 -5 -10 -6 0 -9 -4 -6 -9 4 -5 3 -11 -2 -13 -13 -5 -62 -109
-56 -119 3 -5 0 -9 -7 -9 -7 0 -9 -3 -6 -6 4 -4 -3 -20 -14 -35 -11 -16 -17
-29 -13 -29 4 0 -1 -9 -10 -19 -17 -18 -17 -20 1 -31 15 -9 15 -11 1 -6 -25 7
-44 -20 -28 -39 11 -13 10 -14 -6 -9 -10 4 -16 4 -12 -1 4 -4 0 -14 -8 -22 -8
-8 -12 -19 -9 -24 4 -5 1 -9 -5 -9 -6 0 -8 -4 -5 -10 3 -5 1 -10 -6 -10 -7 0
-10 -3 -6 -6 3 -4 -1 -13 -9 -21 -8 -9 -13 -22 -10 -30 3 -8 1 -11 -4 -8 -14
9 -12 -9 3 -24 6 -7 8 -12 2 -11 -24 5 -37 -1 -31 -15 3 -8 1 -15 -5 -15 -6 0
-8 -4 -5 -9 4 -5 1 -11 -4 -13 -6 -2 -12 -10 -13 -19 -2 -9 -10 -28 -20 -42
-20 -31 -22 -41 -5 -31 7 4 8 3 4 -5 -4 -6 -12 -9 -17 -6 -8 5 -14 -16 -10
-37 0 -5 -4 -8 -10 -8 -5 0 -7 -4 -4 -10 3 -5 1 -10 -5 -10 -6 0 -8 -4 -5 -10
3 -5 1 -10 -6 -10 -7 0 -10 -3 -6 -6 3 -4 -1 -13 -9 -21 -8 -9 -13 -22 -10
-30 3 -8 2 -12 -3 -9 -11 7 -33 -43 -25 -56 5 -7 2 -8 -6 -3 -10 6 -12 4 -7
-9 4 -9 3 -15 -2 -12 -5 3 -12 -6 -15 -22 -4 -15 -22 -57 -41 -93 -19 -36 -32
-69 -28 -73 3 -3 1 -6 -6 -6 -7 0 -9 -5 -6 -10 3 -5 2 -10 -3 -10 -9 0 -35
-51 -38 -77 -1 -7 -9 -20 -18 -29 -9 -8 -16 -21 -16 -28 0 -7 -13 -37 -29 -67
-16 -30 -27 -62 -26 -72 2 -9 -1 -15 -6 -11 -9 5 -13 -10 -9 -31 1 -5 -7 -15
-16 -22 -10 -7 -14 -13 -9 -13 4 0 1 -8 -8 -17 -8 -10 -17 -25 -19 -33 -2 -8
-5 -17 -8 -20 -3 -3 -18 -31 -35 -62 -16 -32 -32 -58 -35 -58 -3 0 -19 26 -35
58 -17 31 -32 59 -35 62 -3 3 -6 12 -8 20 -2 8 -11 24 -20 34 -9 11 -11 16 -4
12 11 -7 11 -4 1 12 -7 12 -17 18 -22 15 -4 -3 -8 1 -6 8 3 26 -1 40 -10 34
-6 -3 -8 4 -6 15 2 11 -1 20 -6 20 -6 0 -8 4 -4 9 3 5 -2 17 -11 25 -8 9 -12
16 -9 16 4 0 0 11 -9 25 -9 13 -16 31 -16 39 0 8 -7 22 -16 30 -8 9 -17 26
-19 38 -3 12 -8 24 -12 27 -5 3 -9 13 -11 21 -2 8 -8 17 -13 18 -5 2 -7 8 -3
13 3 5 0 9 -7 9 -7 0 -9 3 -6 6 4 4 -9 37 -28 73 -19 36 -37 78 -41 93 -3 16
-10 25 -15 22 -5 -3 -6 3 -2 12 5 13 3 15 -7 9 -8 -5 -11 -4 -6 3 8 13 -14 63
-25 56 -5 -3 -6 1 -3 9 3 8 -2 21 -10 30 -8 8 -12 17 -9 21 4 3 1 6 -6 6 -7 0
-9 5 -6 10 3 6 1 10 -5 10 -6 0 -8 5 -5 10 3 6 1 10 -4 10 -6 0 -10 3 -10 8 4
21 -2 42 -10 37 -5 -3 -13 0 -17 6 -4 8 -3 9 4 5 17 -10 15 0 -5 31 -10 14
-18 33 -20 42 -1 9 -7 17 -13 19 -5 2 -8 8 -4 13 3 5 1 9 -5 9 -6 0 -8 7 -5
15 6 14 -7 20 -31 15 -5 -1 -4 4 3 11 14 15 16 33 2 24 -5 -3 -7 0 -4 8 3 8
-2 21 -10 30 -8 8 -12 17 -9 21 4 3 1 6 -6 6 -7 0 -9 5 -6 10 3 6 1 10 -5 10
-6 0 -9 4 -5 9 3 5 -1 16 -9 24 -8 8 -12 18 -8 22 4 5 -2 5 -12 1 -16 -5 -17
-4 -6 9 16 19 -3 46 -28 39 -14 -5 -14 -3 1 6 18 11 18 13 1 31 -9 10 -14 19
-10 19 4 0 -2 13 -13 29 -11 15 -18 31 -14 35 3 3 1 6 -6 6 -7 0 -10 4 -7 9 6
10 -43 114 -56 119 -5 2 -6 8 -2 13 3 5 0 9 -6 9 -6 0 -8 4 -5 10 3 6 0 10 -8
10 -8 0 -21 8 -28 18 -11 14 -11 15 1 5 21 -19 35 -16 19 4 -8 9 -13 19 -11
22 1 3 -4 13 -11 21 -7 9 -12 21 -10 27 2 6 -1 15 -8 19 -8 5 -9 3 -4 -6 5 -9
4 -11 -4 -6 -7 4 -11 15 -10 24 3 22 -10 62 -20 62 -4 0 -8 6 -8 13 0 21 -65
157 -75 157 -5 0 -7 4 -3 9 3 5 0 15 -7 23 -7 7 -14 20 -16 28 -5 27 -25 59
-33 54 -5 -3 -7 1 -4 8 7 18 -49 130 -60 121 -4 -5 -5 0 -2 9 8 24 -24 86 -43
81 -13 -4 -13 -3 -1 5 12 9 12 15 -5 39 -10 15 -17 31 -16 36 1 4 -3 7 -9 7
-5 0 -7 5 -4 10 3 6 1 10 -5 10 -6 0 -9 4 -6 8 2 4 -6 28 -18 52 l-23 45 -546
3 c-320 1 -547 -1 -547 -7 0 -14 26 -32 35 -23 5 4 5 2 1 -5 -3 -6 5 -24 19
-39 14 -15 25 -30 25 -33 0 -11 58 -71 68 -71 6 0 14 -5 18 -12 5 -7 3 -8 -6
-3 -8 5 -1 -8 15 -29 32 -42 45 -42 20 1 l-17 28 21 -25 c11 -14 19 -31 16
-38 -6 -17 65 -103 79 -95 6 3 8 3 4 -2 -4 -4 0 -14 10 -22 11 -9 11 -12 2 -7
-11 5 -11 2 2 -11 13 -14 20 -16 31 -7 11 9 14 8 14 -3 0 -8 -4 -12 -9 -9 -4
3 -8 0 -8 -5 0 -6 6 -11 14 -11 8 0 18 -4 21 -10 4 -6 -1 -7 -11 -3 -12 4 -15
3 -10 -6 5 -7 18 -16 31 -21 13 -5 29 -19 35 -31 10 -17 9 -20 -2 -14 -7 3 -5
0 4 -8 10 -8 18 -19 18 -25 0 -6 9 -13 20 -17 11 -3 19 -12 17 -18 -1 -7 4
-11 11 -9 8 1 11 -2 8 -7 -7 -11 22 -43 33 -37 4 3 8 -4 8 -16 1 -11 12 -30
25 -43 13 -13 34 -38 48 -56 14 -18 35 -42 47 -54 13 -12 23 -25 23 -29 0 -3
15 -20 33 -37 17 -17 31 -34 30 -37 -1 -4 5 -6 14 -4 8 2 12 -1 9 -7 -10 -15
13 -53 26 -45 6 4 8 3 5 -3 -8 -13 17 -36 28 -25 5 4 5 2 2 -4 -3 -6 3 -20 13
-32 11 -12 20 -25 20 -30 0 -13 55 -63 62 -56 3 3 5 -1 4 -9 0 -7 13 -31 31
-53 18 -21 44 -54 58 -72 15 -18 32 -29 38 -25 7 3 9 3 5 -2 -4 -4 1 -15 10
-24 12 -11 13 -13 2 -7 -8 5 0 -5 18 -23 18 -17 29 -31 26 -31 -4 0 -1 -7 6
-15 15 -18 34 -20 24 -2 -4 6 -3 8 1 4 14 -12 15 -38 2 -30 -7 4 -6 -1 2 -10
7 -9 17 -14 22 -11 5 3 8 0 7 -7 -2 -7 2 -13 9 -14 6 0 15 -4 20 -9 5 -5 3 -6
-4 -2 -23 13 -14 -10 12 -32 14 -12 25 -27 25 -33 0 -5 4 -8 9 -5 10 7 34 -18
25 -26 -3 -3 6 -15 20 -26 15 -11 26 -24 26 -28 0 -5 11 -22 25 -39 14 -16 40
-48 58 -69 18 -22 42 -50 55 -63 12 -13 22 -27 22 -32 0 -4 12 -18 27 -32 14
-13 23 -17 19 -9 -4 8 2 4 13 -10 11 -14 21 -29 21 -35 0 -5 12 -23 26 -40 14
-16 22 -23 18 -15 -4 9 -3 12 2 7 5 -5 9 -16 9 -24 0 -9 6 -18 14 -21 8 -3 11
0 7 6 -7 12 19 10 31 -2 4 -4 3 -7 -2 -6 -6 1 -13 2 -17 1 -9 -1 11 -40 34
-66 10 -11 31 -35 48 -54 16 -19 30 -38 30 -43 0 -4 11 -6 25 -4 15 3 23 1 20
-5 -4 -5 -11 -7 -16 -4 -20 13 -8 -15 13 -29 12 -9 18 -16 13 -16 -5 0 4 -13
19 -29 15 -16 23 -31 18 -35 -5 -3 -19 8 -30 24 -13 17 -28 27 -36 24 -8 -3
-17 -1 -21 5 -4 7 1 8 12 4 10 -3 -2 12 -26 35 -24 23 -49 39 -55 35 -6 -3 -8
-3 -4 2 8 9 -11 50 -19 41 -8 -7 -32 18 -26 27 3 5 -1 8 -8 6 -26 -3 -37 1
-43 17 -3 8 -2 12 4 9 6 -3 7 1 4 10 -4 9 -9 14 -11 11 -6 -6 -23 12 -39 39
-6 10 -19 23 -29 29 -28 16 -45 33 -45 45 0 5 -4 13 -10 16 -6 3 -8 -2 -5 -12
3 -10 -1 -4 -10 14 -8 17 -24 34 -35 38 -12 4 -19 9 -16 12 7 8 -13 33 -26 33
-6 0 -5 -7 2 -15 20 -24 5 -18 -16 7 -10 12 -13 18 -5 13 9 -5 12 -4 10 4 -3
7 -8 12 -12 12 -13 -2 -35 24 -29 33 3 5 -2 7 -10 3 -10 -3 -15 0 -14 11 0 10
-6 16 -16 16 -10 -1 -14 4 -11 11 2 7 -5 16 -16 20 -12 4 -18 11 -15 17 5 7 2
9 -8 5 -10 -3 -15 0 -14 11 0 10 -6 16 -16 16 -11 -1 -15 4 -11 15 4 9 3 13
-1 9 -11 -9 -36 14 -28 26 3 5 -2 7 -10 3 -10 -3 -15 0 -14 11 0 10 -6 16 -16
16 -10 -1 -17 1 -16 5 2 19 -4 24 -13 11 -9 -13 -10 -12 -5 3 7 22 -170 207
-197 207 -10 0 -16 4 -13 9 9 14 -43 71 -65 71 -11 0 -18 4 -15 9 9 14 -43 71
-65 71 -11 0 -18 4 -15 9 9 14 -43 71 -65 71 -11 0 -18 4 -15 9 9 14 -43 71
-65 71 -11 0 -17 5 -14 10 9 15 -124 150 -147 150 -11 0 -16 4 -13 10 8 13
-127 150 -149 150 -9 0 -14 4 -11 10 8 13 -127 150 -149 150 -9 0 -14 4 -11
10 8 13 -127 150 -149 150 -9 0 -14 4 -11 10 8 13 -127 150 -149 150 -9 0 -14
4 -11 10 8 13 -127 150 -149 150 -9 0 -15 4 -12 9 9 14 -44 72 -57 64 -7 -3
-2 5 11 19 17 19 20 27 10 31 -8 3 -6 6 6 6 28 1 56 30 49 49 -5 13 -3 14 7 5
9 -8 17 -6 33 10 12 12 21 25 19 30 -1 4 2 8 8 8 5 1 14 2 18 3 4 0 22 15 39
33 17 17 33 30 35 27 8 -8 37 32 42 57 2 13 5 25 5 27 1 2 6 0 11 -3 8 -5 7
-12 -2 -23 -12 -16 -11 -16 12 0 14 9 23 22 22 30 -2 7 0 10 4 5 10 -10 45 23
37 36 -3 6 -1 7 6 3 15 -10 43 13 34 27 -3 5 -2 7 4 4 12 -8 65 38 55 48 -4 5
-1 5 6 1 7 -4 15 -1 18 8 3 9 13 16 21 16 8 0 11 5 8 10 -3 6 0 10 8 10 7 0
26 14 43 32 16 17 23 27 15 23 -9 -5 -12 -4 -7 3 4 6 13 9 21 5 14 -5 19 11
18 54 -1 7 4 10 9 7 5 -3 7 -12 4 -20 -7 -19 -1 -18 20 4 10 9 20 17 24 17 3
0 17 11 30 24 14 12 35 30 48 38 12 9 22 20 22 25 0 10 19 32 35 39 5 2 9 8 7
12 -1 5 2 6 7 3 13 -8 62 34 55 46 -4 7 -2 8 4 4 7 -4 29 10 52 34 22 22 40
39 40 36 0 -2 13 8 28 22 15 15 37 33 49 41 12 8 19 19 16 24 -3 6 -1 7 4 4
14 -9 37 19 28 32 -4 7 0 8 10 4 17 -6 73 43 68 59 -2 5 0 7 5 7 18 -3 33 2
28 10 -3 4 6 13 19 19 14 7 25 16 25 22 0 5 6 10 14 10 7 0 20 8 27 17 8 10 9
14 2 10 -6 -4 -15 -3 -18 3 -4 6 -3 10 2 9 21 -4 34 2 27 13 -5 7 -2 9 8 6 17
-7 81 39 73 53 -9 14 -25 11 -25 -5 0 -8 -4 -18 -10 -21 -6 -4 -7 1 -3 10 3
10 0 21 -8 27 -12 8 -11 9 1 5 8 -2 23 0 34 5 13 7 16 7 12 -1 -4 -6 -1 -11 6
-11 20 0 43 18 43 32 1 7 6 12 12 11 6 -1 19 8 29 20 19 21 19 21 -1 7 -18
-13 -19 -13 -8 0 6 9 27 17 45 18 l33 2 -32 -28 c-28 -23 -32 -32 -28 -61 4
-30 3 -32 -9 -16 -15 21 -40 11 -31 -13 3 -9 3 -14 0 -10 -10 10 -42 -25 -37
-40 3 -8 -2 -10 -14 -5 -17 6 -18 5 -4 -12 10 -12 10 -16 2 -11 -14 8 -74 -52
-66 -66 3 -5 0 -7 -8 -6 -7 2 -12 -4 -12 -13 1 -9 -4 -16 -11 -15 -16 1 -77
-73 -69 -85 3 -5 0 -8 -8 -7 -7 2 -13 -6 -13 -19 0 -12 -5 -26 -9 -30 -5 -4
-6 -3 -2 4 3 6 2 14 -2 17 -5 3 -15 -6 -23 -20 -7 -14 -21 -30 -31 -35 -9 -5
-15 -17 -13 -28 2 -14 -1 -18 -10 -15 -14 6 -62 -51 -57 -68 1 -5 -2 -7 -8 -3
-5 3 -13 -2 -17 -12 -3 -10 -20 -30 -37 -46 -17 -15 -26 -26 -21 -25 6 2 10
-1 10 -7 0 -5 -7 -10 -15 -10 -8 0 -21 -12 -29 -26 -13 -23 -13 -28 0 -40 30
-28 82 -61 75 -48 -4 8 1 3 12 -10 13 -16 21 -20 26 -12 4 6 12 9 17 5 5 -3 7
-10 3 -15 -7 -12 39 -53 83 -74 17 -8 33 -19 35 -23 5 -12 112 -85 125 -85 6
0 11 -5 10 -11 -1 -6 4 -10 11 -9 6 2 12 -2 12 -7 0 -6 15 -10 33 -11 27 0 29
-2 12 -9 -11 -5 -15 -9 -8 -9 7 -1 24 -12 38 -27 14 -14 30 -22 37 -18 7 4 8
3 4 -4 -4 -7 -3 -12 3 -12 6 0 27 -15 48 -32 20 -18 33 -27 28 -19 -6 11 -5
12 6 5 20 -12 40 -14 33 -3 -3 5 -1 9 3 9 5 0 18 6 28 14 15 11 17 17 7 28 -9
12 -9 15 3 15 8 0 11 -5 8 -10 -4 -6 -1 -7 6 -3 7 5 10 15 6 23 -4 13 -3 14 9
4 12 -10 16 -8 21 8 3 12 13 21 20 21 8 0 19 9 25 20 6 11 8 20 4 20 -3 0 -1
7 6 15 7 8 15 13 19 12 8 -4 57 45 57 58 0 6 18 22 40 37 21 15 38 32 36 38
-1 6 6 14 15 17 19 7 49 44 46 55 -2 4 5 4 14 1 11 -4 14 -3 9 6 -5 8 -1 14
12 18 23 6 36 29 25 45 -3 6 -1 8 5 5 14 -9 43 3 36 15 -3 5 3 12 14 15 23 6
36 29 25 45 -3 6 -1 8 5 5 14 -9 43 3 36 14 -3 5 -1 9 5 9 16 0 81 61 81 76 0
8 6 14 13 14 7 0 29 17 48 37 18 20 25 31 14 23 -18 -14 -19 -14 -6 3 7 9 18
17 24 17 18 0 67 52 67 71 0 10 5 21 12 25 7 4 8 3 4 -4 -13 -21 10 -13 30 10
19 22 19 22 -1 8 -19 -15 -19 -15 0 11 11 15 23 25 26 23 4 -2 9 5 12 17 3 13
12 19 23 17 11 -2 26 9 38 29 12 18 26 32 32 33 18 0 47 37 34 45 -5 3 -8 11
-4 16 3 5 10 7 15 4 5 -4 12 1 15 9 3 9 9 14 13 12 4 -3 13 5 20 16 11 18 11
20 -3 15 -8 -3 -18 -2 -22 4 -3 6 -26 8 -50 6 -24 -2 -46 -1 -49 2 -3 3 -16 6
-28 7 -12 1 -47 5 -77 9 -30 3 -93 10 -140 14 -47 5 -92 12 -100 15 -8 3 -49
7 -90 10 -41 2 -82 6 -90 10 -8 3 -36 6 -63 8 -87 5 -48 21 48 20 70 -2 95 1
96 10 0 10 2 9 6 -1 5 -11 7 -11 14 0z m-635 -41 c0 -12 -4 -16 -9 -11 -5 5
-6 14 -3 20 10 15 12 14 12 -9z m2638 -10 c-6 -6 -10 -3 -10 10 0 13 4 16 10
10 7 -7 7 -13 0 -20z m-2669 -30 c3 -5 1 -10 -4 -10 -6 0 -11 5 -11 10 0 6 2
10 4 10 3 0 8 -4 11 -10z m2705 0 c0 -5 -5 -10 -11 -10 -5 0 -7 5 -4 10 3 6 8
10 11 10 2 0 4 -4 4 -10z m-1579 -87 c13 -16 12 -17 -3 -4 -17 13 -22 21 -14
21 2 0 10 -8 17 -17z m459 13 c0 -2 -8 -10 -17 -17 -16 -13 -17 -12 -4 4 13
16 21 21 21 13z m-500 -110 c0 -2 -8 -10 -17 -17 -16 -13 -17 -12 -4 4 13 16
21 21 21 13z m541 -13 c13 -16 12 -17 -3 -4 -17 13 -22 21 -14 21 2 0 10 -8
17 -17z m-1921 -67 c-7 -7 -13 -7 -20 0 -6 6 -3 10 10 10 13 0 16 -4 10 -10z
m3300 0 c-7 -7 -13 -7 -20 0 -6 6 -3 10 10 10 13 0 16 -4 10 -10z m-3140 -11
c-7 -9 -15 -13 -18 -10 -3 3 -12 -1 -21 -8 -14 -11 -14 -10 -2 5 7 10 17 16
21 13 5 -3 11 -1 15 5 3 5 9 10 12 10 3 0 0 -7 -7 -15z m2982 0 c3 3 10 -1 16
-8 9 -10 8 -14 -3 -14 -8 0 -23 10 -32 21 -14 15 -14 18 -2 8 9 -6 18 -10 21
-7z m-1935 -65 c1 -11 -2 -20 -7 -20 -6 0 -7 17 -1 38 3 8 7 -1 8 -18z m879
-5 c1 -8 -2 -15 -6 -15 -5 0 -8 9 -7 20 1 21 10 18 13 -5z m-1977 -19 c9 -11
9 -16 -1 -22 -7 -4 -10 -4 -6 1 4 4 3 14 -3 22 -6 7 -9 13 -6 13 2 0 10 -6 16
-14z m1018 -56 c1 -11 -2 -20 -7 -20 -6 0 -7 17 -1 38 3 8 7 -1 8 -18z m1039
-5 c1 -8 -2 -15 -6 -15 -5 0 -8 9 -7 20 1 21 10 18 13 -5z m-2131 -35 c3 -6
-1 -7 -9 -4 -18 7 -21 14 -7 14 6 0 13 -4 16 -10z m1012 -40 c1 -11 -2 -20 -7
-20 -6 0 -7 17 -1 38 3 8 7 -1 8 -18z m1199 -5 c1 -8 -2 -15 -6 -15 -5 0 -8 9
-7 20 1 21 10 18 13 -5z m-2654 -73 c-7 -2 -12 -8 -12 -13 0 -6 6 -7 13 -3 6
4 8 3 4 -1 -16 -18 -33 -13 -31 9 1 11 3 22 3 23 1 1 9 -1 18 -4 11 -4 12 -8
5 -11z m4123 -11 c1 -19 -18 -22 -32 -6 -4 4 -2 5 5 1 6 -4 12 -2 12 3 0 6 -6
11 -12 11 -9 0 -8 3 2 10 17 11 23 6 25 -19z m-4168 -63 c-3 -8 -6 -5 -6 6 -1
11 2 17 5 13 3 -3 4 -12 1 -19z m4190 0 c-3 -8 -6 -5 -6 6 -1 11 2 17 5 13 3
-3 4 -12 1 -19z m-3820 -73 c0 -8 -4 -12 -9 -9 -5 3 -6 10 -3 15 9 13 12 11
12 -6z m3458 6 c3 -5 2 -12 -3 -15 -5 -3 -9 1 -9 9 0 17 3 19 12 6z m-3948
-26 c0 -8 -4 -12 -9 -9 -5 3 -6 10 -3 15 9 13 12 11 12 -6z m4438 6 c3 -5 2
-12 -3 -15 -5 -3 -9 1 -9 9 0 17 3 19 12 6z m-3850 -81 c10 -11 16 -20 13 -20
-3 0 -13 9 -23 20 -10 11 -16 20 -13 20 3 0 13 -9 23 -20z m3245 -10 c0 -5 -5
-10 -11 -10 -5 0 -7 5 -4 10 3 6 8 10 11 10 2 0 4 -4 4 -10z m-3076 -98 c3 -5
-1 -9 -9 -9 -8 0 -12 4 -9 9 3 4 7 8 9 8 2 0 6 -4 9 -8z m2930 0 c3 -5 -1 -9
-9 -9 -8 0 -12 4 -9 9 3 4 7 8 9 8 2 0 6 -4 9 -8z m-2847 -37 c0 -8 -4 -12 -9
-9 -5 3 -6 10 -3 15 9 13 12 11 12 -6z m289 3 c3 -4 -1 -5 -10 -4 -8 1 -18 5
-22 8 -3 4 1 5 10 4 8 -1 18 -5 22 -8z m2469 3 c3 -5 2 -12 -3 -15 -5 -3 -9 1
-9 9 0 17 3 19 12 6z m-3901 -63 c-3 -4 -11 -5 -19 -1 -21 7 -19 12 4 10 11 0
18 -5 15 -9z m5066 7 c0 -7 -30 -13 -34 -7 -3 4 4 9 15 9 10 1 19 0 19 -2z
m-3720 -19 c0 -2 -6 -9 -14 -15 -11 -9 -16 -9 -22 0 -4 7 -3 9 4 5 6 -3 13 -2
17 4 6 10 15 14 15 6z m2375 -8 c5 4 5 1 1 -6 -6 -10 -11 -10 -22 -1 -8 6 -14
14 -14 16 0 3 6 0 13 -6 8 -6 18 -7 22 -3z m105 -14 c0 -8 -19 -13 -24 -6 -3
5 1 9 9 9 8 0 15 -2 15 -3z m-3913 -29 c0 -8 -4 -12 -9 -9 -5 3 -6 10 -3 15 9
13 12 11 12 -6z m5218 6 c3 -5 2 -12 -3 -15 -5 -3 -9 1 -9 9 0 17 3 19 12 6z
m-5318 -46 c0 -8 -4 -12 -9 -9 -5 3 -6 10 -3 15 9 13 12 11 12 -6z m5418 6 c3
-5 2 -12 -3 -15 -5 -3 -9 1 -9 9 0 17 3 19 12 6z m-5454 -188 c13 -16 12 -17
-3 -4 -10 7 -18 15 -18 17 0 8 8 3 21 -13z m5499 13 c0 -2 -8 -10 -17 -17 -16
-13 -17 -12 -4 4 13 16 21 21 21 13z m-4966 -101 c-4 -8 -11 -12 -16 -9 -6 4
-5 10 3 15 19 12 19 11 13 -6z m4436 0 c0 -12 -19 -12 -23 0 -4 9 -1 12 9 8 7
-3 14 -7 14 -8z m-4809 -72 c13 -16 12 -17 -3 -4 -17 13 -22 21 -14 21 2 0 10
-8 17 -17z m5179 13 c0 -2 -8 -10 -17 -17 -16 -13 -17 -12 -4 4 13 16 21 21
21 13z m-5019 -173 c13 -16 12 -17 -3 -4 -17 13 -22 21 -14 21 2 0 10 -8 17
-17z m4859 13 c0 -2 -8 -10 -17 -17 -16 -13 -17 -12 -4 4 13 16 21 21 21 13z
m-4699 -173 c13 -16 12 -17 -3 -4 -10 7 -18 15 -18 17 0 8 8 3 21 -13z m4539
13 c0 -2 -8 -10 -17 -17 -16 -13 -17 -12 -4 4 13 16 21 21 21 13z m-4379 -173
c13 -16 12 -17 -3 -4 -17 13 -22 21 -14 21 2 0 10 -8 17 -17z m4219 13 c0 -2
-8 -10 -17 -17 -16 -13 -17 -12 -4 4 13 16 21 21 21 13z m-4059 -173 c13 -16
12 -17 -3 -4 -10 7 -18 15 -18 17 0 8 8 3 21 -13z m3899 13 c0 -2 -8 -10 -17
-17 -16 -13 -17 -12 -4 4 13 16 21 21 21 13z m-3510 -70 c0 -2 -8 -10 -17 -17
-16 -13 -17 -12 -4 4 13 16 21 21 21 13z m3121 -13 c13 -16 12 -17 -3 -4 -17
13 -22 21 -14 21 2 0 10 -8 17 -17z m-26 -32 c3 -5 2 -12 -3 -15 -5 -3 -9 1
-9 9 0 17 3 19 12 6z m-3324 -58 c13 -16 12 -17 -3 -4 -10 7 -18 15 -18 17 0
8 8 3 21 -13z m3579 13 c0 -2 -8 -10 -17 -17 -16 -13 -17 -12 -4 4 13 16 21
21 21 13z m-3419 -173 c13 -16 12 -17 -3 -4 -10 7 -18 15 -18 17 0 8 8 3 21
-13z m3259 13 c0 -2 -8 -10 -17 -17 -16 -13 -17 -12 -4 4 13 16 21 21 21 13z
m-3099 -173 c13 -16 12 -17 -3 -4 -10 7 -18 15 -18 17 0 8 8 3 21 -13z m2939
13 c0 -2 -8 -10 -17 -17 -16 -13 -17 -12 -4 4 13 16 21 21 21 13z m-301 -59
c-2 -1 -11 -8 -21 -15 -12 -10 -18 -10 -24 -1 -4 7 -3 9 4 5 6 -3 13 -2 17 4
3 5 11 10 17 10 6 0 9 -1 7 -3z m-2309 -13 c0 -8 -19 -13 -24 -6 -3 5 1 9 9 9
8 0 15 -2 15 -3z m2268 -39 c-3 -3 -9 2 -12 12 -6 14 -5 15 5 6 7 -7 10 -15 7
-18z m-2437 -62 c13 -16 12 -17 -3 -4 -10 7 -18 15 -18 17 0 8 8 3 21 -13z
m222 4 c3 -8 -1 -14 -8 -14 -7 0 -11 6 -8 14 3 7 6 13 8 13 2 0 5 -6 8 -13z
m2170 0 c3 -8 -1 -14 -8 -14 -7 0 -11 6 -8 14 3 7 6 13 8 13 2 0 5 -6 8 -13z
m227 9 c0 -2 -8 -10 -17 -17 -16 -13 -17 -12 -4 4 13 16 21 21 21 13z m-2325
-116 c3 -5 1 -10 -4 -10 -6 0 -11 5 -11 10 0 6 2 10 4 10 3 0 8 -4 11 -10z
m2025 0 c0 -5 -5 -10 -11 -10 -5 0 -7 5 -4 10 3 6 8 10 11 10 2 0 4 -4 4 -10z
m-569 -133 c-10 -9 -11 -8 -5 6 3 10 9 15 12 12 3 -3 0 -11 -7 -18z m-1183
-152 c-3 -3 -9 2 -12 12 -6 14 -5 15 5 6 7 -7 10 -15 7 -18z m1475 10 c-3 -9
-8 -14 -10 -11 -3 3 -2 9 2 15 9 16 15 13 8 -4z m-1328 -335 c3 -5 1 -10 -4
-10 -6 0 -11 5 -11 10 0 6 2 10 4 10 3 0 8 -4 11 -10z m1185 0 c0 -5 -5 -10
-11 -10 -5 0 -7 5 -4 10 3 6 8 10 11 10 2 0 4 -4 4 -10z m1817 -866 c-3 -3
-12 -4 -19 -1 -8 3 -5 6 6 6 11 1 17 -2 13 -5z"/>
</g>
</svg>
